# xmcd
#
# Track frame offsets:
#	187
#	35112
#	70860
#	105975
#	141502
#	177250
#
# Disc length: 2832 seconds
#
# Revision: 1
# Processed by: cddbd v1.5.1PL0 Copyright (c) Steve Scherf et al.
# Submitted via: CDex 1.50Beta5
#
DISCID=530b0e06
DTITLE=JAGATARA - おあそび
DYEAR=1990
DGENRE=Pop
TTITLE0=DEN NA KASSI
TTITLE1=ZIYADUMA
TTITLE2=RESPECT JAH
TTITLE3=かわから
TTITLE4=そらそれ
TTITLE5=DEN NA KASSI
EXTD=
EXTT0=
EXTT1=
EXTT2=
EXTT3=
EXTT4=
EXTT5=
PLAYORDER=
